# xmcd
# 
# Track frame offsets:
#     150
#     15304
#     32716
#     49433
#     69528
#     87021
#     107789
#     122570
#     140556
#     155872
#     169397
# 
# Disc length: 2421
# 
# Revision: 6
# Processed by: cddbd v1.5.2PL0 Copyright (c) Steve Scherf et al.
# Submitted via: fre:ac v1.0.31
# 
DISCID=9609730b
DTITLE=Billy  Gibbons - The Big Bad Blues
DYEAR=2018
DGENRE=Blues
TTITLE0=Missin' Yo' Kissin'
TTITLE1=My Baby She Rocks
TTITLE2=Second Line
TTITLE3=Standing Around Crying
TTITLE4=Let the Left Hand Know
TTITLE5=Bring It to Jerome
TTITLE6=That's What She Said
TTITLE7=Mo' Slower Blues
TTITLE8=Hollywood 151
TTITLE9=Rollin' and Tumblin'
TTITLE10=Crackin' Up
EXTD=Release-Date: 21.09.2018\n\nMARO\n
EXTT0=
EXTT1=
EXTT2=
EXTT3=
EXTT4=
EXTT5=
EXTT6=
EXTT7=
EXTT8=
EXTT9=
EXTT10=
PLAYORDER=
